# xmcd
#
# Track frame offsets: 
#        150
#        16646
#        32570
#        45230
#        62664
#        78244
#        97291
#        117683
#        137923
#        152844
#        176189
#        198232
#        216186
#
# Disc length: 3208 seconds
#
# Revision: 1
# Processed by: cddbd v1.5.2PL0 Copyright (c) Steve Scherf et al.
# Submitted via: ExactAudioCopy v0.99pb5
#
DISCID=b00c860d
DTITLE=Press Play - Life Is Beautiful
DYEAR=2009
DGENRE=Pop
TTITLE0=Break It Out
TTITLE1=I Give My Love
TTITLE2=Say Say
TTITLE3=I Love Who You Are
TTITLE4=Life Is Beautiful
TTITLE5=Angels Sing
TTITLE6=Sound Of Love
TTITLE7=Unashamed
TTITLE8=Fixation
TTITLE9=Praise The Lord
TTITLE10=Fill This Place
TTITLE11=I'm Alive
TTITLE12=One Life
EXTD=
EXTT0=
EXTT1=
EXTT2=
EXTT3=
EXTT4=
EXTT5=
EXTT6=
EXTT7=
EXTT8=
EXTT9=
EXTT10=
EXTT11=
EXTT12=
PLAYORDER=
